<svg width="100%" height="100%" xmlns="http://www.w3.org/2000/svg" xmlns:xlink="http://www.w3.org/1999/xlink">
  <style>
    .square,
    .landscape,
    .portrait { visibility: hidden; }
    .skyscraper { visibility: visible; }
    @media (min-aspect-ratio: 1/2) {
        .square,
        .landscape,
        .skyscraper { visibility: hidden; }
        .portrait { visibility: visible; }
    }

    @media (min-aspect-ratio: 1/1) {
        .portrait,
        .landscape,
        .skyscraper { visibility: hidden; }
        .square { visibility: visible; }
    }

    @media (min-aspect-ratio: 2/1) {
        .portrait,
        .square,
        .skyscraper { visibility: hidden; }
        .landscape { visibility: visible; }
    }
  </style>
  <symbol id="ix" viewBox="0 0 160 160">
    <rect width="160" height="160" fill="#424242" fill-rule="nonzero"/>
    <path fill="#29B6F6" fill-rule="nonzero" d="M15.73 55.47h20.06v50.67H15.73zm26.78 0h2.76q11.08 0 16.56 5.33 5 4.88 5 13.83 0 7.94-5.22 12.79-5.56 5.14-15.33 5.14h-3.8zM71.3 77.43a13.81 13.81 0 0 1-1.3-6.58 19.19 19.19 0 0 1 1.21-7.2A10.61 10.61 0 0 1 75 58.83q4.85-3.39 16.56-3.39h2.76V83.1h-3.8q-11.09 0-15.31-2.1a8.41 8.41 0 0 1-3.91-3.57zm.49 11.33h22.56v17.41h-2.43q-10.7 0-15.44-3.43t-4.7-11.3zm28.71-33.32h2.91q15.33 0 18.87 14.28a48.32 48.32 0 0 1 1.19 11.45q0 12.23-5 18.62t-15 6.39h-2.97zM126.61 60.59a4.58 4.58 0 0 1 1.81-3.94 7.34 7.34 0 0 1 4.4-1.18h1.62v6h-7.84zm0 6.54h7.84v6h-1.62q-4.35 0-5.73-2.77a5.13 5.13 0 0 1-.49-2.34zm9.31-1.94h-2.36V63h2.36v-7.53h1a7.38 7.38 0 0 1 4.87 1.4 4.46 4.46 0 0 1 1.54 3.61q0 2.84-3.7 3.69 3.17.65 4 2.65a4.11 4.11 0 0 1 .25 1.53 4.42 4.42 0 0 1-.43 1.85 4.05 4.05 0 0 1-1.27 1.57 8.18 8.18 0 0 1-5 1.32h-1.19zM126.61 95.1q0-4.73 3.81-6.1a9.38 9.38 0 0 1 3.19-.48h.84v13.21h-7.84zm9.87-2.16h6.9v13.21h-6.9zM126.61 79.74h16.77v2.13h-16.77z"
    />
  </symbol>
  <symbol id="typography" viewBox="0 0 160 20">
    <path fill="#424242" fill-rule="nonzero" d="M9.75 3.77H4.46v2.87h5v3.77h-5v3h5.3v3.77H0V0h9.75zM20.5 8l-5.34-8h5.5L23 4.43 25.84 0h5.5l-5.65 8 6.39 9.14h-5.44l-3.43-5.59-4 5.59H13.8zM47 14.16h-6.36l-1 3h-4.77L41.39 0h4.86l6.52 17.14H48zm-1.18-3.39l-2-5.71-2 5.71zM56.6 17.14L59.51 0h4.41l3.43 9.14L70.76 0h4.41l2.91 17.14h-4.43l-1.48-9.87-4 9.87h-1.82l-3.84-9.87L61 17.14zM88 17.14h-4.47V0h7.09A6.07 6.07 0 0 1 95 1.5a5.64 5.64 0 0 1 1.53 4.23A5.64 5.64 0 0 1 95 10a6.07 6.07 0 0 1-4.42 1.5H88zm0-9.27h1.48q2.45 0 2.45-2.14t-2.46-2.14H88zM106 0v13.37h5.34v3.77h-9.8V0zM126.06 3.77h-5.3v2.87h5v3.77h-5v3h5.3v3.77h-9.75V0h9.75z"
     />
  </symbol>


  <symbol id="portrait" viewBox="0 0 160 180">
      <use xlink:href="#ix" x="40" y="32" width="80" height="80"/>
      <use xlink:href="#typography" x="17" y="130" width="154" height="16"/>
  </symbol>

  <symbol id="landscape" viewBox="0 0 328 64">
      <use xlink:href="#ix" x="0" y="0" width="64" height="64"/>
      <use xlink:href="#typography" x="82" y="20" width="246" height="27"/>
  </symbol>

  <symbol id="skyscraper" viewBox="0 0 64 328" preserveAspectRatio="xMinyMin">
      <use xlink:href="#ix" x="0" y="264" width="64" height="64"/>
      <use xlink:href="#typography" x="-95" y="110" width="246" height="27" transform="rotate(-90 32 123)"/>
  </symbol>

  <use class="square" xlink:href="#ix" x="5%" y="5%" width="90%" height="90%"/>
  <use class="portrait" xlink:href="#portrait" x="5%" y="5%" width="90%" height="90%"/>
  <use class="landscape" xlink:href="#landscape" x="5%" y="5%" width="90%" height="90%"/>
  <use class="skyscraper" xlink:href="#skyscraper" x="5%" y="5%" width="90%" height="90%"/>
</svg>